<svg width="399" height="399" viewBox="0 0 399 399" fill="none" xmlns="http://www.w3.org/2000/svg">
<path d="M275.199 249.417C288.418 265.08 295.337 282.193 295.051 301.881C294.658 329.005 280.724 349.424 261.144 366.189C238.327 385.725 210.752 393.965 181.241 396.279C174.777 396.65 168.299 396.67 161.833 396.343C159.04 396.289 156.273 395.798 153.632 394.884C143.051 391.051 141.442 383.212 149.834 375.837C158.072 368.601 166.963 362.081 174.898 354.541C180.98 348.721 186.487 342.327 191.344 335.451C196.487 328.212 196.94 319.862 193.752 310.237C188.67 312.602 183.802 314.487 179.328 317.051C169.948 322.425 164.656 322.201 156.609 315.138C148.79 308.273 141.106 301.253 133.327 294.341C132.17 293.437 130.96 292.603 129.705 291.844C124.986 296.205 120.6 300.555 115.898 304.53C109.667 309.799 103.487 309.935 99.4437 305.271C95.6539 300.905 96.2774 295.134 101.753 289.522C105.639 285.537 110.079 282.09 113.36 279.2C104.537 268.432 95.6454 259.602 89.2522 249.243C81.7811 237.129 91.0145 226.331 96.7843 214.479C85.7701 213.788 76.7125 215.805 69.4322 221.389C62.4844 227.023 56.2188 233.449 50.7628 240.537C45.478 247.058 41.3673 254.528 36.6756 261.535C32.2523 268.143 27.721 275.089 18.4081 274.128C11.9608 273.464 2.97079 261.85 2.37438 253.12C1.02275 233.219 3.55707 213.852 12.8496 195.862C29.8733 162.916 56.6915 141.492 91.6276 130.03C106.266 125.229 121.012 126.758 135.943 131.306C136.771 130.353 137.742 129.404 138.519 128.317C178.838 71.9696 233.784 36.2019 298.856 14.9611C321.017 7.72817 343.439 1.14398 367.062 0.540818C372.962 0.390449 378.867 -0.0607267 384.765 0.00685497C392.456 0.0930216 396.292 2.82168 395.98 10.3351C395.581 24.875 394.222 39.3726 391.906 53.7327C382.412 107.735 356.441 154.051 322.709 196.293C309.58 212.735 294.797 227.862 280.749 243.573C279.089 245.424 277.323 247.185 275.199 249.417ZM143.939 274.481C152.725 281.462 159.123 286.94 166.001 291.715C167.17 292.266 168.447 292.547 169.739 292.542C171.031 292.534 172.306 292.24 173.469 291.677C184.372 285.898 195.521 280.368 205.67 273.418C241.818 248.663 274.52 219.902 302.01 185.686C316.924 167.123 330.57 147.544 345.071 128.047L261.049 50.0207C258.275 51.3178 255.573 52.7622 252.954 54.3477C236.565 65.2234 219.857 75.6713 204.031 87.3156C186.291 100.366 171.279 116.313 157.878 133.891C135.652 163.041 122.567 197.08 106.121 229.316C104.485 232.527 105.403 238.993 107.721 241.863C113.754 249.336 121.225 255.65 129.332 263.613C142.003 250.478 153.154 238.204 165.123 226.77C172.018 220.58 179.411 214.968 187.227 209.99C191.336 207.199 196.582 206.247 200.341 210.534C204.151 214.88 200.87 219.135 198.192 222.628C195.027 226.573 191.597 230.298 187.926 233.778C180.324 241.294 172.704 248.787 164.871 256.055C158.3 262.164 151.417 267.925 143.939 274.481ZM380.057 16.4463C344.105 16.5189 312.373 29.8848 280.021 40.7621L279.444 43.0006L353.854 105.73C366.604 85.5232 376.381 52.2088 380.057 16.4463ZM201.999 364.609C232.272 358.907 255.726 343.552 268.905 315.411C277.691 296.629 271.554 279.102 261.198 262.436C243.767 275.742 227.095 288.474 210.426 301.201C223.556 324.372 216.831 344.777 201.999 364.609ZM126.645 145.428C83.3624 138.331 23.5308 196.857 27.4116 237.036C45.086 209.125 67.7664 192.309 101.897 198.359L126.645 145.428Z" fill="url(#paint0_linear_2_2)"/>
<path d="M38.8835 361.878C40.1659 359.558 41.5429 355.337 44.29 352.402C54.6504 341.341 65.3907 330.632 76.138 319.941C79.2939 316.801 83.2862 314.821 87.3936 318.173C91.7255 321.707 89.8298 325.932 87.2703 329.427C78.4846 341.423 69.6788 353.419 60.3947 365.026C57.6331 368.197 54.1232 370.63 50.1831 372.1C44.3341 374.406 38.6791 369.767 38.8835 361.878Z" fill="url(#paint1_linear_2_2)"/>
<path d="M135.113 318.865C141.343 319.035 145.871 324.652 143.1 329.003C136.043 339.953 128.29 350.44 119.89 360.397C116.881 364.001 111.478 363.492 107.656 360.042C105.909 358.565 104.766 356.495 104.444 354.227C104.122 351.962 104.644 349.655 105.911 347.748C108.204 343.93 110.93 340.391 114.036 337.196C118.637 332.297 123.498 327.625 128.495 323.136C130.563 321.509 132.779 320.08 135.113 318.865Z" fill="url(#paint2_linear_2_2)"/>
<path d="M79.4607 271.343C78.2715 273.971 76.8667 276.497 75.2607 278.891C67.4156 288.683 59.45 298.377 51.3639 307.971C49.8444 309.609 48.0769 310.996 46.1262 312.08C42.0883 314.564 37.9827 314.559 34.7269 310.883C31.3629 307.086 32.1097 302.869 35.4822 299.603C46.5216 288.902 57.6877 278.324 69.0751 267.997C70.5638 266.645 73.7334 266.426 75.9112 266.828C77.2189 267.07 78.1178 269.531 79.4607 271.343Z" fill="url(#paint3_linear_2_2)"/>
<path d="M257.335 91.9847C268.306 91.8341 276.764 96.3214 285.254 103.392C294.055 110.721 300.63 118.539 303.878 129.465C311.377 154.737 296.539 173.341 272.478 176.744C252.979 179.501 236.438 171.471 224.407 156.206C214.101 143.125 213.822 127.904 220.971 113.278C228.178 98.5198 241.162 92.1417 257.335 91.9847ZM234.176 132.474C236.994 137.337 239.017 143.536 243.215 147.325C247.564 151.25 253.888 153.195 259.592 155.364C267.085 158.216 273.572 155.195 278.664 149.894C283.594 144.766 283.777 138.325 281.367 131.765C277.573 121.422 268.723 116.231 259.834 111.549C251.852 107.346 244.278 109.86 239.728 117.732C237.408 121.737 236.371 126.485 234.176 132.474Z" fill="url(#paint4_linear_2_2)"/>
<defs>
<linearGradient id="paint0_linear_2_2" x1="199.017" y1="5.72205e-06" x2="199.017" y2="396.574" gradientUnits="userSpaceOnUse">
<stop stop-color="#0627FF"/>
<stop offset="1" stop-color="#3C54EF"/>
</linearGradient>
<linearGradient id="paint1_linear_2_2" x1="64.4239" y1="316.431" x2="64.4239" y2="372.692" gradientUnits="userSpaceOnUse">
<stop stop-color="#0627FF"/>
<stop offset="1" stop-color="#3C54EF"/>
</linearGradient>
<linearGradient id="paint2_linear_2_2" x1="124.142" y1="318.865" x2="124.142" y2="362.875" gradientUnits="userSpaceOnUse">
<stop stop-color="#0627FF"/>
<stop offset="1" stop-color="#3C54EF"/>
</linearGradient>
<linearGradient id="paint3_linear_2_2" x1="56.004" y1="266.648" x2="56.004" y2="313.813" gradientUnits="userSpaceOnUse">
<stop stop-color="#0627FF"/>
<stop offset="1" stop-color="#3C54EF"/>
</linearGradient>
<linearGradient id="paint4_linear_2_2" x1="260.951" y1="91.981" x2="260.951" y2="177.28" gradientUnits="userSpaceOnUse">
<stop stop-color="#0627FF"/>
<stop offset="1" stop-color="#3C54EF"/>
</linearGradient>
</defs>
</svg>
